<svg xmlns="http://www.w3.org/2000/svg" viewBox="0 0 430.12 133.21"><defs><style>.cls-1,.cls-2{fill:#51657f;}.cls-1{fill-rule:evenodd;}</style></defs><title>Ativo 2</title><g id="Camada_2" data-name="Camada 2"><g id="Foreground"><path class="cls-1" d="M68.84,86.84h-22v22.78A4.51,4.51,0,0,0,51.44,114H64.19a4.51,4.51,0,0,0,4.64-4.36ZM39.43,52.39h-22V75.17A4.51,4.51,0,0,0,22,79.53H34.79a4.51,4.51,0,0,0,4.64-4.36Zm58.81,0h-22V75.17a4.51,4.51,0,0,0,4.64,4.36H93.6a4.51,4.51,0,0,0,4.64-4.36Zm-29.41,0h-22V75.17a4.51,4.51,0,0,0,4.64,4.36H64.19a4.51,4.51,0,0,0,4.64-4.36Zm0-34.45h-22V40.72a4.51,4.51,0,0,0,4.64,4.36H64.19a4.51,4.51,0,0,0,4.64-4.36ZM115.63.38v74c0,32.47-25.88,58.8-57.81,58.8S0,106.89,0,74.41V.38Z"/><path class="cls-2" d="M155.55,110c0,8.26-5.15,13.06-14.11,13.06h-6.26v9.71H126V97.65h15.41C150.4,97.65,155.55,102.15,155.55,110Zm-8.71.3c0-3.45-2.15-5.3-5.85-5.3h-5.8v10.76H141C144.69,115.71,146.84,113.8,146.84,110.25Z"/><path class="cls-2" d="M195.6,115.16c0,10.26-8.11,18-19,18s-19-7.71-19-18,8.1-17.76,19-17.76S195.6,105,195.6,115.16Zm-28.52,0a9.89,9.89,0,0,0,9.65,10.11c5.25,0,9.46-4.4,9.46-10.11s-4.2-10-9.46-10A9.77,9.77,0,0,0,167.09,115.21Z"/><path class="cls-2" d="M219.25,132.72l-5.1-9.71h-6.8v9.71h-9.16V97.65h15.76c9.3,0,14.61,4.5,14.61,12.31,0,5.3-2.2,9.21-6.25,11.31l7.3,11.46Zm-11.91-17H214c3.7,0,5.85-1.9,5.85-5.45S217.7,105,214,105h-6.65Z"/><path class="cls-2" d="M259.32,97.65v7.55H248.82v27.52h-9.16V105.2h-10.4V97.65Z"/><path class="cls-2" d="M277.68,125.31c4.05,0,6.86-2.75,6.86-7.3V97.65h9.15V118c0,9.26-6.2,15.11-16.06,15.11s-16.26-5.85-16.26-15.11V97.65h9.15V118C270.53,122.51,273.53,125.31,277.68,125.31Z"/><path class="cls-2" d="M322.07,114.81H330v13.81a28.1,28.1,0,0,1-14.61,4.5c-10.71,0-18.76-7.71-18.76-17.91S304.86,97.4,316,97.4a22.55,22.55,0,0,1,14.41,5.2l-5.2,6.4a14.19,14.19,0,0,0-9.26-3.85,10.08,10.08,0,0,0,.1,20.16,14.35,14.35,0,0,0,6.05-1.65Z"/><path class="cls-2" d="M349.54,125.31c4.05,0,6.86-2.75,6.86-7.3V97.65h9.15V118c0,9.26-6.2,15.11-16.06,15.11s-16.26-5.85-16.26-15.11V97.65h9.15V118C342.39,122.51,345.39,125.31,349.54,125.31Z"/><path class="cls-2" d="M396.69,97.65V105H378.18v6.55h16.71v7.26l-16.71.05v6.6h19v7.3H369V97.65ZM386.63,86.84l5.65,7.65H386l-2.9-4.25-2.9,4.25h-6.31l5.65-7.65Z"/><path class="cls-2" d="M415.12,104.7c-2.2,0-3.65.8-3.65,2.4,0,5.8,18.46,2.5,18.46,15.11,0,7.15-6.31,10.81-14.11,10.81a26.33,26.33,0,0,1-16.16-5.6l3.55-7.15c3.61,3.1,9.06,5.3,12.71,5.3,2.7,0,4.4-1,4.4-2.85,0-6-18.46-2.35-18.46-14.76,0-6.55,5.55-10.71,14-10.71a26.87,26.87,0,0,1,14,4l-3.45,7.25C422.73,106.35,418,104.7,415.12,104.7Z"/><path class="cls-2" d="M162.45.56v79h-21V17.48H126V.56Z"/><path class="cls-2" d="M251.78,39.65c0,22.89-18.38,40.09-43,40.09s-43-17.2-43-40.09S184.18,0,208.79,0,251.78,17,251.78,39.65Zm-64.65.11c0,12.73,10.09,22.56,21.89,22.56s21.44-9.83,21.44-22.56S220.93,17.42,209,17.42A22,22,0,0,0,187.13,39.76Z"/><path class="cls-2" d="M340.11,39.65c0,22.89-18.38,40.09-43,40.09s-43-17.2-43-40.09S272.51,0,297.12,0,340.11,17,340.11,39.65Zm-64.65.11c0,12.73,10.09,22.56,21.89,22.56s21.44-9.83,21.44-22.56-9.53-22.33-21.44-22.33A22,22,0,0,0,275.46,39.76Z"/><path class="cls-2" d="M422.07.58,367,79.49H348.56L403.64.58Z"/><path class="cls-2" d="M380.8,19.37c0,10.86-8.61,19-20.14,19s-20.14-8.16-20.14-19S349.12.55,360.65.55,380.8,8.61,380.8,19.37Zm-30.29.05a10.49,10.49,0,0,0,10.26,10.7c5.58,0,10-4.66,10-10.7s-4.47-10.6-10-10.6A10.37,10.37,0,0,0,350.5,19.42Z"/><path class="cls-2" d="M430.12,60.5c0,10.86-8.61,19-20.14,19s-20.14-8.16-20.14-19S398.45,41.69,410,41.69,430.12,49.75,430.12,60.5Zm-30.29.05a10.49,10.49,0,0,0,10.26,10.7c5.58,0,10-4.66,10-10.7s-4.47-10.6-10-10.6A10.37,10.37,0,0,0,399.83,60.56Z"/></g></g></svg>