<!-- Generator: Adobe Illustrator 18.1.1, SVG Export Plug-In  -->
<svg version="1.1"
	 xmlns="http://www.w3.org/2000/svg" xmlns:xlink="http://www.w3.org/1999/xlink" xmlns:a="http://ns.adobe.com/AdobeSVGViewerExtensions/3.0/"
	 x="0px" y="0px" width="429.047px" height="206.021px" viewBox="0 0 429.047 206.021" enable-background="new 0 0 429.047 206.021"
	 xml:space="preserve">
<defs>
</defs>
<g>
	<g>
		<path fill="#696A6D" d="M191.229,148.688h-7.752l-10.457,25.784c-4.902,0.411-8.518,0.975-14.147,1.741
			c5.058,0.69,8.321,1.214,12.788,1.61l7.756,0.563c5.064,0.29,10.416,0.452,16.735,0.533h0.005l3.598,9.634h8.25L191.229,148.688z
			 M193.934,173.54c-4.762,0.074-8.913,0.199-12.805,0.396l5.669-14.727c0.167-0.389,0.276-0.886,0.387-1.604
			c0.168-0.778,0.224-1.553,0.224-2.327c-0.056,1.329,0.164,2.601,0.719,3.932l5.813,14.341L193.934,173.54z"/>
	</g>
</g>
<path fill="#696A6D" d="M170.056,179.25l-3.747,9.303h8.195l3.336-8.708C175.209,179.688,172.643,179.489,170.056,179.25z"/>
<path fill="#696A6D" d="M176.937,40.247h22.435v5.801h-14.919v10.775h13.594v5.637h-13.54v17.572h-7.569V40.247z"/>
<path fill="#696A6D" d="M202.224,47.476h18.22v3.753h-13.52v10.4h12.797v3.662h-12.797v10.987h13.927v3.753h-18.627V47.476z"/>
<path fill="#696A6D" d="M225.147,47.476h11.485c7.958,0,14.061,4.612,15.962,11.71c3.119,11.439-4.477,20.846-16.143,20.846h-11.305
	V47.476z M235.863,76.279c7.416,0,12.434-4.748,12.434-12.661c0-7.414-5.064-12.343-12.704-12.343h-5.743v25.004H235.863z"/>
<path fill="#696A6D" d="M256.879,47.476h18.223v3.753h-13.52v10.4h12.795v3.662h-12.795v10.987h13.926v3.753h-18.629V47.476z"/>
<path fill="#696A6D" d="M279.805,47.476h10.578c4.522,0,7.959,2.487,9.09,6.104c1.357,4.432-0.543,8.547-4.023,10.128
	c-0.453,0.226-0.904,0.362-1.357,0.498c0.904,0.316,1.629,0.858,2.397,1.897l0.813,1.131l0.498,0.725l3.98,6.828l3.028,5.244h-5.245
	l-2.214-3.979c-2.804-4.93-3.844-6.646-4.521-7.552c-1.675-2.397-2.984-3.12-4.976-3.12h-3.346v14.65h-4.701V47.476z
	 M289.073,61.945c3.845,0,6.149-2.304,5.969-5.695c-0.138-3.121-2.398-5.202-6.06-5.202h-4.477v10.898H289.073z"/>
<path fill="#696A6D" d="M318.721,47.476h4.702l13.7,32.556h-5.154l-3.573-9.088h-14.423l-3.526,9.088h-5.109L318.721,47.476z
	 M326.995,67.507l-5.426-13.248c-0.315-0.814-0.498-1.673-0.498-2.577c0.046,0.541,0,1.041-0.091,1.537
	c-0.089,0.451-0.18,0.814-0.315,1.085l-5.336,13.203H326.995z"/>
<path fill="#696A6D" d="M363.057,53.715c-0.451-0.226-0.903-0.496-1.399-0.678c-9.632-4.477-18.087-0.724-20.257,6.963
	c-2.578,9.135,3.391,16.776,12.432,16.459c2.851-0.136,5.517-0.813,8.141-2.08c0.497-0.271,0.994-0.542,1.492-0.813v4.295
	c-0.498,0.271-0.95,0.498-1.447,0.678c-3.165,1.401-6.42,1.99-9.721,1.854l-0.633,2.079c0.18-0.045,0.317-0.091,0.496-0.091
	c1.672-0.18,3.075,1.177,3.03,2.896c-0.091,2.306-2.396,3.843-6.196,2.712l-0.631-0.18l-0.317-0.137l0.497-1.355
	c0.497,0.271,1.04,0.451,1.582,0.496c0.905,0.091,1.539-0.09,1.945-0.405c0.633-0.544,0.633-1.583,0-2.081
	c-0.361-0.316-0.904-0.496-1.809-0.406c-0.182,0.045-0.361,0.09-0.543,0.09l-0.315,0.137c-0.091,0-0.181,0.045-0.318,0.09
	l1.269-3.934c-1.088-0.09-2.217-0.317-3.257-0.633c-8.456-2.532-13.112-10.896-10.489-20.574
	c2.712-9.902,13.835-15.146,25.184-10.172c0.453,0.18,0.86,0.406,1.266,0.587V53.715z"/>
<path fill="#696A6D" d="M377.617,47.476h4.701l13.701,32.556h-5.154l-3.572-9.088h-14.424l-3.525,9.088h-5.109L377.617,47.476z
	 M373.776,42.594c2.169-1.222,3.66-1.401,6.102-0.77l0.906,0.271c0.316,0.09,0.633,0.182,0.948,0.271
	c0.498,0.136,1.085,0.227,1.809,0.136c0.589-0.091,1.313-0.362,2.306-0.95c0.138-0.09,0.273-0.181,0.408-0.271l0.949,2.397
	c-0.137,0.136-0.316,0.271-0.542,0.405c-1.718,1.131-3.166,1.448-5.335,1.086l-0.227-0.09l-1.809-0.451
	c-1.945-0.454-3.256-0.318-4.703,0.496c-0.225,0.135-0.406,0.226-0.588,0.362l-0.996-2.397
	C373.277,42.911,373.504,42.729,373.776,42.594z M385.893,67.507l-5.426-13.248c-0.316-0.814-0.5-1.673-0.5-2.577
	c0.047,0.541,0,1.041-0.09,1.537c-0.088,0.451-0.179,0.814-0.315,1.085l-5.335,13.203H385.893z"/>
<path fill="#696A6D" d="M411.338,47.025c7.777,0,13.926,4.748,15.734,11.802c3.029,11.89-4.567,21.657-15.734,21.657
	c-9.541,0-16.369-6.917-16.369-16.73C394.969,53.943,401.797,47.025,411.338,47.025z M414.231,76.188
	c0.949-0.225,1.808-0.588,2.668-1.04c3.798-2.079,6.059-5.968,6.059-11.395c0-5.38-2.261-9.313-6.059-11.394
	c-0.814-0.453-1.719-0.813-2.668-1.04c-7.776-1.944-14.514,3.617-14.514,12.434C399.717,72.571,406.499,78.132,414.231,76.188z"/>
<path fill="#696A6D" d="M176.937,94.506h14.533c6.189,0,10.61,3.26,11.936,8.232c2.212,8.068-3.15,14.809-12.157,14.809h-6.796
	v16.741h-7.516V94.506z M189.203,111.967c3.813,0,6.023-1.547,6.688-4.311c0.993-4.364-1.713-7.513-7.184-7.513h-4.201v11.824
	H189.203z"/>
<path fill="#696A6D" d="M219.011,105.637c6.752,0,12.091,4.121,13.659,10.244c2.631,10.323-3.964,18.801-13.659,18.801
	c-8.282,0-14.208-6.005-14.208-14.521C204.803,111.643,210.729,105.637,219.011,105.637z M221.524,130.954
	c0.824-0.196,1.569-0.511,2.316-0.903c3.297-1.806,5.259-5.181,5.259-9.891c0-4.672-1.962-8.086-5.259-9.892
	c-0.707-0.392-1.492-0.706-2.316-0.902c-6.751-1.689-12.6,3.14-12.6,10.794C208.924,127.813,214.811,132.642,221.524,130.954z"/>
<path fill="#696A6D" d="M237.223,106.029h9.184c3.926,0,6.908,2.159,7.891,5.299c1.176,3.847-0.473,7.419-3.494,8.792
	c-0.393,0.197-0.785,0.314-1.178,0.433c0.785,0.274,1.413,0.745,2.08,1.648l0.707,0.98l0.432,0.628l3.454,5.928l2.63,4.552h-4.553
	l-1.924-3.453c-2.434-4.278-3.336-5.771-3.925-6.555c-1.452-2.08-2.591-2.708-4.317-2.708h-2.904v12.716h-4.082V106.029z
	 M245.268,118.59c3.337,0,5.34-2.002,5.182-4.945c-0.117-2.709-2.08-4.515-5.26-4.515h-3.885v9.46H245.268z"/>
<path fill="#696A6D" d="M255.762,106.029h22.098v3.219h-8.988v25.041h-4.082v-25.041h-9.027V106.029z"/>
<path fill="#696A6D" d="M280.473,106.029h4.082v16.839c0,5.103,3.061,8.36,7.889,8.36c4.828,0,7.852-3.258,7.852-8.36v-16.839h4.082
	v17.074c0,7.026-4.162,11.578-11.934,11.578c-7.811,0-11.971-4.552-11.971-11.578V106.029z"/>
<path fill="#696A6D" d="M332.086,111.054c-0.511-0.235-0.981-0.471-1.492-0.667c-8.596-3.416-15.66,0-17.467,6.477
	c-2.315,8.399,3.65,15.269,12.678,14.287c0.824-0.079,1.609-0.236,2.395-0.432c0.196-0.078,0.432-0.118,0.629-0.196v-6.83h-4.397
	v-3.102h8.518v12.601c-1.022,0.313-2.119,0.589-3.455,0.863c-0.941,0.156-1.884,0.314-2.825,0.432
	c-12.874,1.451-20.765-7.418-17.624-18.565c2.277-8.125,11.108-12.599,21.785-8.95c0.432,0.158,0.824,0.314,1.256,0.473V111.054z"/>
<path fill="#696A6D" d="M337.893,106.029h4.082v16.839c0,5.103,3.061,8.36,7.891,8.36c4.827,0,7.85-3.258,7.85-8.36v-16.839h4.082
	v17.074c0,7.026-4.16,11.578-11.932,11.578c-7.813,0-11.973-4.552-11.973-11.578V106.029z"/>
<path fill="#696A6D" d="M365.735,106.029h15.818v3.258h-11.736v9.027h11.108v3.18h-11.108v9.539h12.088v3.256h-16.17V106.029z"/>
<path fill="#696A6D" d="M385.776,128.834c0.43,0.354,0.861,0.668,1.332,0.941c1.139,0.668,2.276,1.101,3.377,1.375
	c4.199,0.982,6.986-1.178,6.906-4.357c-0.039-1.963-0.98-3.297-3.727-4.71l-2.906-1.53c-4.355-2.276-5.848-5.574-4.631-9.42
	c1.49-4.633,7.185-7.105,13.541-4.279c0.393,0.157,0.824,0.393,1.219,0.628v3.887c-0.395-0.354-0.825-0.668-1.296-0.942
	c-4.515-2.669-8.401-1.413-9.421,1.53c-0.863,2.395,0.079,4.396,3.219,6.006l2.629,1.373c4.985,2.552,6.438,5.457,5.143,9.853
	c-1.295,4.553-7.145,7.222-14.053,4.278c-0.432-0.196-0.902-0.392-1.332-0.667V128.834z"/>
<path fill="#696A6D" d="M413.071,106.029h4.083l11.893,28.26h-4.475l-3.1-7.889h-12.521l-3.063,7.889h-4.435L413.071,106.029z
	 M420.255,123.417l-4.71-11.499c-0.275-0.707-0.433-1.453-0.433-2.238c0.04,0.471,0,0.903-0.078,1.335
	c-0.078,0.393-0.157,0.706-0.275,0.941l-4.631,11.461H420.255z"/>
<path fill="#696A6D" d="M206.799,155.997h25.455v3.707h-10.354v28.849h-4.703v-28.849h-10.398V155.997z"/>
<path fill="#696A6D" d="M238.399,155.997h4.703v28.848h14.921v3.708h-19.624V155.997z"/>
<path fill="#696A6D" d="M265.162,155.997h18.221v3.753h-13.52v10.399h12.795v3.662h-12.795V184.8h13.927v3.753h-18.628V155.997z"/>
<path fill="#696A6D" d="M288.533,155.997h25.455v3.707h-10.354v28.849h-4.703v-28.849h-10.398V155.997z"/>
<path fill="#696A6D" d="M319.127,155.997h4.701v32.556h-4.701V155.997z"/>
<path fill="#696A6D" d="M331.818,182.267c0.496,0.407,0.992,0.768,1.537,1.084c1.31,0.771,2.621,1.267,3.887,1.585
	c4.838,1.13,8.049-1.358,7.959-5.021c-0.045-2.261-1.131-3.798-4.295-5.425l-3.348-1.765c-5.018-2.622-6.736-6.419-5.334-10.85
	c1.719-5.337,8.274-8.184,15.6-4.93c0.45,0.183,0.949,0.453,1.4,0.724v4.477c-0.451-0.405-0.95-0.769-1.492-1.085
	c-5.199-3.075-9.675-1.627-10.851,1.764c-0.995,2.758,0.091,5.064,3.708,6.917l3.028,1.584c5.741,2.937,7.415,6.284,5.925,11.349
	c-1.492,5.244-8.232,8.319-16.188,4.929c-0.498-0.226-1.041-0.452-1.537-0.77V182.267z"/>
<path fill="#696A6D" d="M357.984,155.997h4.518l9.768,12.842c0.588,0.722,0.815,1.445,0.815,2.26
	c-0.045-0.814,0.226-1.538,0.768-2.26l9.767-12.842h4.566v32.556h-4.747v-26.497c0,0.406-0.091,0.814-0.228,1.176
	c-0.135,0.45-0.27,0.677-0.45,0.859l-9.677,12.615l-9.721-12.615c-0.227-0.273-0.453-0.814-0.59-1.448
	c-0.045-0.181-0.09-0.361-0.09-0.587v26.497h-4.7V155.997z"/>
<path fill="#696A6D" d="M411.459,155.544c7.777,0,13.926,4.747,15.734,11.801c3.03,11.893-4.567,21.658-15.734,21.658
	c-9.54,0-16.368-6.917-16.368-16.729C395.091,162.462,401.919,155.544,411.459,155.544z M414.353,184.707
	c0.95-0.226,1.809-0.586,2.669-1.038c3.797-2.08,6.058-5.97,6.058-11.395c0-5.381-2.261-9.314-6.058-11.394
	c-0.815-0.454-1.719-0.815-2.669-1.041c-7.776-1.944-14.515,3.617-14.515,12.435C399.838,181.091,406.621,186.652,414.353,184.707z"
	/>
<g>
	<path fill="#54B948" d="M37.579,45.696c-1.77-0.079-3.536-0.163-5.29-0.256c-0.091,2.285-0.173,4.579-0.238,6.886
		c1.917-0.117,3.846-0.224,5.783-0.323c-0.012-0.278-0.019-0.556-0.032-0.836C37.715,49.342,37.649,47.519,37.579,45.696z"/>
	<path fill="#54B948" d="M35.103,13.847c-0.048-0.368-0.063-0.752-0.24-1.08c-0.732,5.666-1.291,11.511-1.728,17.473
		c1.174-0.048,2.362-0.089,3.546-0.131C36.278,24.537,35.782,19.062,35.103,13.847z"/>
	<path fill="#54B948" d="M35.185,41.133c0.726-0.034,1.457-0.061,2.184-0.092c-0.114-2.038-0.234-4.075-0.362-6.106
		c-1.401-0.055-2.784-0.127-4.177-0.19c-0.134,2.165-0.256,4.341-0.36,6.533C33.376,41.231,34.274,41.177,35.185,41.133z"/>
	<path fill="#54B948" d="M32.282,73.367c0.538,6.488,1.532,12.678,2.88,18.48c5.299,22.81,15.98,41.532,29.64,56.039
		c-10.49-16.515-19.541-35.535-23.939-58.439c-1.117-5.818-1.948-11.826-2.46-18.18c-0.386-4.793-0.349-9.723-0.438-14.773
		c-2.016-0.104-4.019-0.219-6.01-0.347C31.825,62.056,31.821,67.804,32.282,73.367z"/>
	<path fill="#54B948" d="M126.167,191.206c-1.434-1.193-3.212-2.27-4.8-3.36c-5.161-3.543-10.389-7.105-15.66-10.619
		c-5.229-3.487-10.327-7.196-15.54-10.74c-1.786-1.215-3.562-2.429-5.34-3.601c-0.052-0.011-0.057,0.023-0.061,0.06
		c2.215,3.565,5.063,6.623,7.98,9.541c2.92,2.92,6.118,5.621,9.54,7.98c6.859,4.729,14.649,8.833,24,10.979
		C126.513,191.348,126.169,191.207,126.167,191.206z"/>
</g>
<g>
	<path fill="#0076C0" d="M67.143,171.466c-5.262,3.184-10.435,6.457-15.66,9.66c-6.102,3.74-12.351,7.376-18.3,11.16
		c-0.729,0.463-1.607,0.995-2.221,1.5c0.014-0.012-0.337,0.074-0.12,0.18c9.41-1.632,17.202-5.3,24.061-9.6
		c6.863-4.304,12.954-9.56,17.7-16.02c0.033,0,0.067-0.049,0-0.06C70.798,169.323,68.944,170.375,67.143,171.466z"/>
	<path fill="#0076C0" d="M123.527,50.926c-0.017,0.606-0.03,1.211-0.044,1.815c1.876,0.145,3.742,0.299,5.589,0.466
		c-0.008-0.301-0.016-0.599-0.024-0.901c-0.071-2.543-0.157-5.08-0.252-7.612c-1.685,0.126-3.379,0.244-5.084,0.354
		C123.643,47.006,123.581,48.966,123.527,50.926z"/>
	<path fill="#0076C0" d="M124.163,34.394c-0.123,2.405-0.227,4.825-0.322,7.251c1.628,0.104,3.245,0.216,4.851,0.335
		c-0.107-2.621-0.23-5.231-0.366-7.829C126.945,34.238,125.554,34.316,124.163,34.394z"/>
	<path fill="#0076C0" d="M122.687,72.886c-3.27,34.507-16.17,60.055-32.1,81.84c-0.084,0.071-0.005,0.023,0.06,0
		c15.997-15.092,28.298-35.011,34.681-59.581c1.628-6.267,2.762-13.033,3.42-20.1c0.594-6.375,0.545-12.992,0.376-19.838
		c-1.891,0.173-3.783,0.346-5.706,0.493C123.301,61.583,123.211,67.355,122.687,72.886z"/>
	<path fill="#0076C0" d="M126.287,8.086c-0.856,7.22-1.465,14.798-1.914,22.536c1.256,0.061,2.512,0.121,3.766,0.18
		C127.687,23.058,127.089,15.449,126.287,8.086z"/>
</g>
<g>
	<path fill="#54B948" d="M56.882,172.486c2.918-2.918,5.766-5.976,7.98-9.541c-0.004-0.036-0.009-0.07-0.061-0.06
		c-1.778,1.172-3.554,2.386-5.34,3.601c-5.213,3.544-10.311,7.253-15.54,10.74c-5.271,3.515-10.499,7.076-15.66,10.619
		c-1.588,1.091-3.366,2.167-4.8,3.36c-0.002,0.001-0.346,0.142-0.12,0.239c9.351-2.146,17.141-6.25,24-10.979
		C50.764,178.107,53.962,175.406,56.882,172.486z"/>
	<path fill="#54B948" d="M111.227,71.267c-0.512,6.354-1.343,12.361-2.46,18.18c-4.398,22.904-13.449,41.924-23.939,58.439
		c13.659-14.507,24.341-33.229,29.64-56.039c1.348-5.803,2.342-11.992,2.88-18.48c0.462-5.578,0.457-11.342,0.327-17.27
		c-1.989,0.127-3.994,0.241-6.008,0.348C111.575,61.513,111.614,66.458,111.227,71.267z"/>
	<path fill="#54B948" d="M117.158,41.256c-0.104-2.179-0.225-4.342-0.358-6.493c-1.393,0.063-2.778,0.131-4.179,0.185
		c-0.128,2.021-0.247,4.048-0.36,6.075C113.902,41.093,115.535,41.171,117.158,41.256z"/>
	<path fill="#54B948" d="M112.05,45.689c-0.07,1.825-0.136,3.651-0.223,5.478c-0.013,0.274-0.021,0.546-0.031,0.818
		c1.94,0.103,3.865,0.218,5.782,0.341c-0.065-2.309-0.147-4.604-0.238-6.891C115.587,45.53,113.818,45.609,112.05,45.689z"/>
	<path fill="#54B948" d="M114.767,12.767c-0.177,0.328-0.192,0.712-0.24,1.08c-0.679,5.211-1.175,10.682-1.577,16.248
		c1.184,0.051,2.365,0.105,3.546,0.158C116.059,24.287,115.499,18.438,114.767,12.767z"/>
</g>
<g>
	<path fill="#D82C20" d="M57.063,156.886c0.033,0.001,0.067-0.048,0-0.06c-1.733,1.318-3.573,2.637-5.341,4.02
		c-1.697,1.33-3.425,2.668-5.1,4.02c-8.41,6.794-17.268,13.254-25.86,19.739c-1.601,1.209-3.343,2.438-4.8,3.721
		c-0.019,0.018-0.317,0.131-0.12,0.24c9.272-2.732,17.155-7.167,23.94-12.48C46.557,170.781,52.583,164.487,57.063,156.886z"/>
	<path fill="#D82C20" d="M105.625,40.771c-0.125-1.873-0.259-3.734-0.404-5.578c-1.39,0.041-2.779,0.082-4.175,0.115
		c-0.137,1.752-0.251,3.521-0.347,5.301C102.356,40.665,103.999,40.72,105.625,40.771z"/>
	<path fill="#D82C20" d="M100.067,60.167c0,21.223-3.863,38.687-9.6,54.54c-1.624,4.488-3.397,8.858-5.34,13.021
		c-1.979,4.24-3.979,8.337-6.12,12.239c0.011,0.052-0.023,0.057-0.06,0.059c0.021,0.084,0.106,0.006,0.12-0.059
		c11.45-13.817,20.087-30.874,24.54-51.9c1.124-5.305,1.885-10.917,2.34-16.799c0.365-4.713,0.309-9.572,0.236-14.556
		c-2.02,0.086-4.045,0.167-6.083,0.233C100.084,58.017,100.067,59.089,100.067,60.167z"/>
	<path fill="#D82C20" d="M103.187,17.386c-0.637,3.949-1.188,8.063-1.628,12.291c1.065,0.031,2.128,0.066,3.19,0.103
		C104.334,25.516,103.822,21.359,103.187,17.386z"/>
	<path fill="#D82C20" d="M100.438,46.125c-0.078,1.777-0.149,3.567-0.21,5.371c1.967,0.065,3.927,0.137,5.877,0.22
		c-0.031-1.933-0.099-3.858-0.188-5.778C104.093,46.003,102.273,46.072,100.438,46.125z"/>
</g>
<g>
	<path fill="#D82C20" d="M43.683,71.267c0.455,5.882,1.216,11.494,2.34,16.799c4.453,21.026,13.09,38.082,24.54,51.9
		c0.014,0.065,0.099,0.143,0.12,0.059c-0.037-0.003-0.071-0.008-0.061-0.059c-2.141-3.902-4.142-7.999-6.12-12.239
		c-1.942-4.162-3.716-8.532-5.34-13.021c-5.736-15.852-9.6-33.317-9.6-54.54c0-1.067-0.018-2.129-0.033-3.192
		c-2.037-0.063-4.064-0.135-6.083-0.219C43.373,61.724,43.318,66.568,43.683,71.267z"/>
	<path fill="#D82C20" d="M43.712,45.939c-0.09,1.926-0.158,3.857-0.189,5.795c1.954-0.085,3.913-0.163,5.878-0.236
		c-0.061-1.805-0.132-3.596-0.21-5.373C47.356,46.072,45.535,46.005,43.712,45.939z"/>
	<path fill="#D82C20" d="M48.932,40.634c-0.096-1.792-0.211-3.572-0.35-5.337c-1.395-0.035-2.784-0.073-4.173-0.115
		c-0.146,1.853-0.281,3.726-0.406,5.608C45.64,40.738,47.283,40.684,48.932,40.634z"/>
	<path fill="#D82C20" d="M46.443,17.386c-0.637,3.979-1.149,8.143-1.565,12.414c1.065-0.039,2.128-0.073,3.193-0.119
		C47.63,25.452,47.079,21.336,46.443,17.386z"/>
	<path fill="#D82C20" d="M133.667,188.326c-1.457-1.283-3.199-2.512-4.8-3.721c-8.593-6.485-17.45-12.945-25.86-19.739
		c-1.675-1.353-3.402-2.69-5.1-4.02c-1.768-1.383-3.607-2.701-5.341-4.02c-0.067,0.012-0.033,0.061,0,0.06
		c4.479,7.602,10.506,13.896,17.28,19.2c6.785,5.313,14.668,9.749,23.94,12.48C133.985,188.457,133.687,188.344,133.667,188.326z"/>
</g>
<g>
	<path fill="#0076C0" d="M20.882,75.046c0.658,7.066,1.792,13.833,3.42,20.1c6.383,24.57,18.684,44.489,34.681,59.581
		c0.065,0.023,0.144,0.071,0.06,0c-15.93-21.785-28.83-47.333-32.1-81.84c-0.523-5.517-0.614-11.271-0.73-17.137
		c-1.92-0.149-3.818-0.316-5.708-0.493C20.337,62.084,20.289,68.685,20.882,75.046z"/>
	<path fill="#0076C0" d="M26.103,50.926c-0.055-1.956-0.116-3.913-0.184-5.866c-1.703-0.109-3.401-0.222-5.086-0.346
		c-0.093,2.525-0.179,5.055-0.25,7.592c-0.008,0.289-0.015,0.575-0.022,0.863c1.848-0.162,3.71-0.312,5.587-0.449
		C26.132,52.123,26.119,51.525,26.103,50.926z"/>
	<path fill="#0076C0" d="M23.342,8.086c-0.803,7.372-1.401,14.991-1.854,22.745c1.253-0.074,2.503-0.152,3.767-0.219
		C24.806,22.878,24.197,15.302,23.342,8.086z"/>
	<path fill="#0076C0" d="M25.465,34.375c-1.392-0.078-2.778-0.161-4.159-0.248c-0.138,2.605-0.261,5.224-0.368,7.854
		c1.604-0.117,3.229-0.217,4.852-0.318C25.693,39.224,25.588,36.792,25.465,34.375z"/>
	<path fill="#0076C0" d="M118.667,193.786c-0.613-0.505-1.492-1.037-2.221-1.5c-5.949-3.784-12.197-7.42-18.3-11.16
		c-5.226-3.203-10.398-6.476-15.66-9.66c-1.802-1.091-3.655-2.143-5.46-3.18c-0.067,0.011-0.033,0.06,0,0.06
		c4.746,6.461,10.837,11.717,17.7,16.02c6.858,4.3,14.65,7.968,24.061,9.6C119.004,193.86,118.653,193.774,118.667,193.786z"/>
</g>
<path fill-rule="evenodd" clip-rule="evenodd" fill="#D82C20" d="M59.472,190.351c-4.738,3.247-10.367,6.201-15.947,8.88
	c20.964,0.068,41.774,0.069,62.738,0c-5.383-2.618-11.198-5.683-15.947-8.88c5.399,1.611,10.241,3.198,15.422,5.1
	c2.274,0.835,4.462,1.695,7.35,2.88c1.149,0.472,2.303,0.917,3.479,1.62c0.983,0.589,2.281,1.471,2.296,2.64
	c0.011,0.887-0.877,1.908-1.641,2.221c-0.966,0.395-3.211,0.47-4.856,0.54c-25.756,1.096-10.784,0.55-37.406,0.42
	c-7.452-0.037-14.462,0.212-21.525-0.061c-4.971-0.191-10.756-0.139-15.947-0.359c-1.694-0.072-3.715-0.138-4.792-0.54
	c-0.897-0.336-1.744-1.325-1.706-2.28c0.083-2.069,3.859-3.463,5.776-4.26c5.316-2.213,9.487-3.587,14.831-5.4
	C54.187,191.991,56.841,191.098,59.472,190.351z"/>
<path fill-rule="evenodd" clip-rule="evenodd" fill="#D82C20" d="M106.329,6.65c-20.912,0-41.825,0-62.736,0
	c5.281,2.596,11.325,5.793,15.946,8.881c-8.148-2.446-15.151-4.814-22.706-7.92c-1.146-0.473-2.508-1.041-3.478-1.621
	c-1-0.598-2.289-1.505-2.362-2.58c-0.07-1.006,0.839-2.023,1.641-2.34c1.07-0.423,3.12-0.383,4.921-0.479
	c18.764-1.008,39.51-0.42,58.996-0.42c5.072,0,10.647,0.126,15.814,0.42c1.687,0.096,3.789,0.05,4.856,0.479
	c0.792,0.319,1.628,1.422,1.641,2.16c0.02,1.185-1.335,2.186-2.297,2.76c-1.157,0.691-2.391,1.166-3.479,1.621
	c-7.477,3.121-14.902,5.466-22.838,7.979c-0.073-0.012-0.036-0.06,0-0.06C95.3,12.287,100.676,9.341,106.329,6.65z"/>
<g>
	<path fill-rule="evenodd" clip-rule="evenodd" fill="#0076C0" d="M70.477,63.447c3,0,6,0,9,0c0,1.439,0,2.966,0,4.5
		c0,2.164,0.139,4.127-0.9,5.221c-1.947,2.049-7.102,1.676-8.04-1.381c-0.384-1.252-0.12-2.701-0.12-4.02c0-1.316,0-2.652,0-4.14
		C70.411,63.542,70.406,63.458,70.477,63.447z"/>
	<path fill-rule="evenodd" clip-rule="evenodd" fill="#0076C0" d="M56.397,79.547c3,0,6,0,9,0c-0.378,3.364,0.87,7.969-0.9,9.78
		c-1.611,1.648-5.691,1.609-7.26-0.121c-1.658-1.828-0.592-6.203-0.9-9.479C56.331,79.642,56.326,79.557,56.397,79.547z"/>
	<path fill-rule="evenodd" clip-rule="evenodd" fill="#0076C0" d="M70.477,79.547c3,0,6,0,9,0c0,1.514,0,2.892,0,4.319
		c0,1.35,0.213,2.935-0.18,4.141c-1.219,3.732-8.386,3.24-8.881-0.66c-0.279-2.203,0.209-5.188,0-7.62
		C70.411,79.642,70.406,79.557,70.477,79.547z"/>
	<path fill-rule="evenodd" clip-rule="evenodd" fill="#0076C0" d="M84.496,79.547c3,0,6,0,9,0c0,1.319,0,2.774,0,4.2
		c0,1.434,0.21,2.967-0.06,4.08c-0.73,3.011-6.257,3.609-8.22,1.26c-1.686-2.018-0.34-6.145-0.78-9.36
		C84.432,79.642,84.426,79.557,84.496,79.547z"/>
	<path fill-rule="evenodd" clip-rule="evenodd" fill="#0076C0" d="M70.477,95.408c3,0,6,0,9,0c0,1.438,0,2.963,0,4.5
		c0,1.486,0.214,3.09-0.24,4.199c-1.177,2.874-7.614,3.249-8.7-0.359c-0.354-1.178-0.12-2.651-0.12-4.021c0-1.349,0-2.722,0-4.14
		C70.411,95.501,70.406,95.417,70.477,95.408z"/>
</g>
<path fill-rule="evenodd" clip-rule="evenodd" fill="#D82C20" d="M15.416,70.706c0.034,0.272-0.333-0.44-0.484-0.655
	c-2.998-4.245-6.021-9.072-8.521-13.847c0.167,19.119,0.333,38.24,0.501,57.357c2.608-4.952,5.498-10.139,8.752-14.655
	c-0.002-0.02,0.003-0.041-0.001-0.061c0.086,0.579-0.767,2.474-1.108,3.49c-2.074,6.154-3.99,11.474-6.629,17.398
	c-0.464,1.042-0.973,2.143-1.652,3.194c-0.623,0.968-1.446,2.172-2.621,2.183c-0.857,0.009-1.915-0.791-2.234-1.539
	c-0.424-0.999-0.415-2.821-0.519-4.496c-1.055-17.043-0.735-36.008-0.891-53.873c-0.041-4.635,0.087-9.716,0.294-14.404
	c0.073-1.636,0.043-3.411,0.442-4.444C1.032,45.605,2,44.775,2.95,44.774c1.134,0,2.109,1.152,2.718,2.076
	c0.58,0.881,1.178,2.151,1.648,3.165C10.466,56.821,12.848,63.306,15.416,70.706z"/>
<path fill-rule="evenodd" clip-rule="evenodd" fill="#D82C20" d="M134.213,70.706c-0.034,0.272,0.333-0.44,0.485-0.655
	c2.999-4.244,6.021-9.072,8.521-13.847c-0.167,19.119-0.333,38.24-0.501,57.357c-2.607-4.953-5.499-10.14-8.752-14.655
	c0.002-0.02-0.003-0.041,0.001-0.06c-0.086,0.578,0.768,2.474,1.109,3.489c2.074,6.154,3.99,11.474,6.629,17.397
	c0.464,1.043,0.973,2.143,1.652,3.194c0.624,0.968,1.446,2.173,2.622,2.184c0.857,0.009,1.915-0.791,2.233-1.54
	c0.424-0.998,0.415-2.821,0.52-4.496c1.055-17.043,0.734-36.008,0.89-53.873c0.041-4.635-0.087-9.716-0.294-14.404
	c-0.074-1.636-0.043-3.411-0.442-4.444c-0.289-0.748-1.257-1.579-2.206-1.579c-1.134,0-2.109,1.152-2.719,2.076
	c-0.58,0.881-1.178,2.151-1.647,3.166C139.162,56.821,136.781,63.306,134.213,70.706z"/>
<path fill-rule="evenodd" clip-rule="evenodd" fill="#0076C0" d="M148.404,30.433c-0.305,0.201-0.693,0.147-1.02,0.18
	c-22.677,2.305-47.625,3-72.54,3c-25.339,0-50.647-0.751-73.62-3.119c9.961-1.109,20.318-1.758,31.02-2.221
	c5.263-0.227,10.646-0.363,16.02-0.6c4.039-0.178,8.096-0.158,12.24-0.24c8.451-0.166,17.343,0,25.92,0
	c14.272,0,28.174,0.725,41.939,1.381C135.218,29.14,141.886,29.899,148.404,30.433z"/>
<path fill-rule="evenodd" clip-rule="evenodd" fill="#54B948" d="M143.545,41.293c-0.188,0.212-0.635,0.146-0.96,0.181
	c-21.091,2.229-44.441,3-67.74,3c-23.743,0-47.324-0.795-68.76-3.061c0.15-0.195,0.557-0.149,0.84-0.18
	c9.043-0.986,18.532-1.634,28.26-2.1c7.471-0.358,15.011-0.513,22.74-0.78c9.109-0.315,18.811-0.06,28.08-0.06
	c6.68,0,13.318,0.28,19.68,0.479C118.904,39.188,131.649,40.054,143.545,41.293z"/>
<path fill-rule="evenodd" clip-rule="evenodd" fill="#D82C20" d="M138.805,52.213c-19.786,2.348-41.858,3.12-64.02,3.12
	c-21.778,0-43.475-0.639-63.06-3c-0.227-0.027-0.657,0.033-0.84-0.18c13.046-1.539,27.116-2.269,41.34-2.76
	c3.53-0.123,7.114-0.203,10.74-0.24C89.07,48.88,115.494,49.464,138.805,52.213z"/>
</svg>