<?xml version="1.0" standalone="no"?>
<!DOCTYPE svg PUBLIC "-//W3C//DTD SVG 20010904//EN"
 "http://www.w3.org/TR/2001/REC-SVG-20010904/DTD/svg10.dtd">
<svg version="1.0" xmlns="http://www.w3.org/2000/svg"
 width="36.000000pt" height="53.000000pt" viewBox="0 0 36.000000 53.000000"
 preserveAspectRatio="xMidYMid meet">
<metadata>
Created by potrace 1.16, written by Peter Selinger 2001-2019
</metadata>
<g transform="translate(0.000000,53.000000) scale(0.100000,-0.100000)"
fill="#000000" stroke="none">
<path d="M127 505 c-15 -14 -40 -28 -55 -32 -66 -16 -69 -23 -71 -147 l-1
-114 49 -80 c92 -147 127 -163 197 -89 22 23 56 65 75 92 34 50 34 50 36 175
1 73 -3 130 -9 137 -6 7 -28 18 -49 23 -21 6 -51 22 -67 35 -37 31 -69 31
-105 0z m-42 -238 c0 -115 1 -122 20 -122 19 0 20 8 25 115 l5 115 28 9 c50
18 62 0 64 -95 1 -46 2 -99 2 -116 1 -26 5 -33 21 -33 19 0 20 7 20 125 0 116
1 125 19 125 43 0 55 -135 17 -210 -25 -50 -121 -151 -137 -145 -21 8 -89 104
-115 163 -38 83 -30 192 14 192 15 0 17 -14 17 -123z"/>
</g>
</svg>
