<svg xmlns="http://www.w3.org/2000/svg" width="204" height="300" preserveAspectRatio="xMidYMid meet" version="1.0" viewBox="0 0 153 225"><metadata>Created by potrace 1.16, written by Peter Selinger 2001-2019</metadata><g fill="#000" stroke="none"><path d="M662 2233 c-19 -9 -46 -32 -60 -51 -64 -82 -87 -101 -196 -160 -87 -47 -125 -62 -155 -62 -44 0 -153 -40 -188 -69 -39 -32 -63 -83 -63 -133 0 -39 6 -54 31 -82 16 -19 39 -38 49 -41 18 -6 17 -9 -7 -63 -72 -161 -92 -366 -53 -529 34 -142 119 -309 271 -533 148 -219 410 -510 458 -510 37 0 192 150 350 338 164 196 311 442 371 621 75 225 66 458 -24 627 l-33 63 26 6 c88 20 121 131 63 211 -16 21 -51 51 -78 66 -47 25 -71 32 -162 42 -24 3 -91 27 -148 53 -95 43 -112 55 -167 117 -35 40 -78 77 -101 87 -51 23 -140 24 -184 2z m161 -15 c28 -8 62 -35 116 -90 42 -43 79 -78 83 -78 4 0 46 -18 95 -41 48 -22 112 -45 143 -50 153 -26 206 -52 240 -119 37 -73 19 -134 -50 -165 -40 -18 -42 -18 -108 3 -78 26 -93 23 -204 -34 -96 -49 -152 -51 -223 -8 -114 68 -145 70 -258 13 -111 -56 -147 -56 -255 -1 -97 50 -146 54 -207 17 -50 -31 -82 -31 -126 -2 -44 29 -61 63 -55 110 10 84 103 151 232 167 36 5 70 13 77 18 7 5 57 33 112 61 60 30 110 63 125 82 56 71 91 107 110 112 13 3 18 1 13 -6 -4 -6 2 -8 18 -4 13 4 42 8 64 8 36 2 35 3 -15 9 -55 7 -55 7 -11 8 24 1 62 -3 84 -10z m25 -561 c15 -8 49 -26 76 -40 30 -17 65 -27 90 -27 37 -1 39 -2 23 -14 -14 -11 -26 -11 -54 -3 -34 11 -37 10 -64 -23 -33 -39 -35 -51 -13 -85 23 -36 5 -61 -53 -71 -42 -8 -48 -13 -57 -42 -8 -29 -6 -35 23 -62 22 -22 31 -39 31 -63 0 -28 -5 -36 -36 -50 -32 -16 -35 -21 -32 -54 3 -32 8 -38 38 -48 28 -9 37 -19 44 -47 7 -29 5 -41 -12 -65 l-21 -29 22 -28 c17 -21 34 -29 69 -33 56 -6 67 -30 38 -78 l-20 -32 33 -31 c18 -18 42 -32 52 -31 16 1 15 2 -4 8 -13 3 -33 18 -44 33 -19 25 -19 27 -1 56 14 25 16 36 6 56 -9 20 -21 26 -62 32 -41 5 -54 12 -62 30 -9 19 -8 28 7 44 15 17 17 27 9 67 -8 41 -13 48 -44 58 -28 9 -36 17 -38 41 -3 26 2 31 31 42 30 11 36 18 40 50 4 32 0 42 -31 74 -32 34 -34 40 -24 63 10 21 19 25 51 25 33 0 43 5 61 30 l21 30 -21 30 -22 31 27 34 c25 34 27 35 59 21 29 -12 34 -11 56 6 17 13 26 16 28 8 3 -7 1 -73 -3 -147 -7 -127 -8 -135 -30 -143 -32 -12 -65 -58 -65 -90 0 -34 39 -94 65 -99 14 -2 11 3 -12 23 -56 47 -51 121 10 153 l30 15 -6 -341 c-4 -188 -4 -341 0 -341 5 0 21 11 37 23 23 19 30 33 31 63 0 21 2 242 3 491 l2 452 54 25 c90 43 170 28 212 -37 64 -101 94 -213 94 -357 0 -267 -126 -553 -385 -875 -82 -102 -246 -271 -312 -323 l-42 -32 -54 41 c-30 22 -93 84 -139 137 -232 265 -422 567 -494 782 -26 77 -29 98 -29 225 0 148 7 184 62 327 24 63 29 68 84 97 71 37 137 41 187 11 l32 -20 0 -158 c0 -87 3 -308 7 -491 l6 -333 56 -37 c31 -20 63 -40 71 -45 17 -9 -26 31 -46 42 -9 5 -14 69 -19 234 -3 125 -4 232 0 238 9 14 60 -17 74 -44 7 -15 10 -17 10 -5 1 19 -36 54 -66 64 -23 6 -23 9 -23 176 0 93 2 169 5 169 3 0 19 -10 35 -22 27 -20 33 -20 70 -8 39 13 42 12 66 -12 24 -23 25 -27 12 -59 -17 -43 -12 -79 10 -78 11 0 12 3 5 6 -17 6 -16 54 1 79 14 19 12 24 -23 58 l-39 38 -32 -17 c-31 -16 -33 -16 -71 11 -39 27 -39 27 -39 93 l0 67 39 -4 c45 -5 100 11 151 43 74 46 128 53 188 22z" transform="translate(0.000000,225.000000) scale(0.100000,-0.100000)"/><path d="M810 2083 c-62 -6 -83 -27 -76 -75 7 -42 -4 -49 -40 -24 -29 21 -120 31 -147 18 -12 -6 -38 -13 -57 -14 l-35 -3 45 -22 c25 -12 52 -24 60 -27 14 -6 -25 -2 -118 10 -45 6 -82 -10 -49 -21 55 -17 54 -16 27 -30 -14 -8 -36 -14 -49 -15 -28 0 -100 -42 -82 -48 26 -9 103 10 119 29 9 10 21 19 26 19 5 0 -3 -13 -18 -29 -16 -17 -23 -31 -18 -35 6 -4 13 -2 17 4 3 5 15 10 25 10 10 0 35 16 56 35 49 46 75 46 39 -1 -22 -29 -18 -33 16 -21 18 7 43 27 56 45 34 43 50 41 24 -4 -27 -46 -27 -47 9 -29 36 19 40 19 40 -1 0 -13 7 -15 31 -10 17 3 46 6 64 6 l33 0 -6 45 c-3 30 -1 45 7 45 6 0 11 -5 11 -10 0 -19 52 -60 74 -60 12 0 27 -5 34 -12 19 -19 15 32 -5 54 -21 24 -10 34 22 20 15 -7 25 -20 25 -33 0 -26 26 -48 58 -49 29 0 28 14 -4 39 -38 30 -17 26 28 -5 21 -15 38 -33 38 -40 0 -8 12 -16 28 -20 15 -3 35 -8 45 -11 9 -2 17 0 17 5 0 14 -45 52 -63 52 -9 0 -19 5 -23 11 -8 13 30 4 61 -15 27 -17 95 -27 95 -15 0 5 -11 21 -25 35 -22 22 -30 24 -77 18 -37 -4 -50 -3 -43 4 6 6 24 12 40 14 l30 4 -34 16 c-31 14 -32 16 -15 26 17 10 15 11 -13 12 -18 0 -33 5 -33 10 0 6 -22 10 -50 10 -37 0 -55 -5 -70 -20 -20 -20 -77 -29 -65 -10 3 6 11 10 17 10 6 0 27 12 45 26 31 23 33 28 20 41 -24 25 -84 7 -110 -33 -26 -40 -62 -48 -52 -11 4 12 18 32 31 44 23 21 33 45 17 41 -5 -1 -28 -3 -53 -5z" transform="translate(0.000000,225.000000) scale(0.100000,-0.100000)"/></g></svg>